<svg width="256" height="48" viewBox="0 0 256 48" fill="none" xmlns="http://www.w3.org/2000/svg">
<path d="M21.78 28.1C21.78 30.0067 21.2867 31.5533 20.3 32.74C19.3267 33.9133 18.0533 34.7533 16.48 35.26C14.9067 35.7533 13.1733 36 11.28 36H3.6V8.44H10.7C13.5533 8.44 15.9133 8.98 17.78 10.06C19.6467 11.1267 20.58 12.9067 20.58 15.4C20.58 17.04 20.0933 18.3667 19.12 19.38C18.1467 20.3933 16.9333 21.0667 15.48 21.4C17.2933 21.7067 18.7933 22.38 19.98 23.42C21.18 24.4467 21.78 26.0067 21.78 28.1ZM16.54 15.66C16.54 14.22 16.0933 13.1733 15.2 12.52C14.3067 11.8533 13.0133 11.52 11.32 11.52H7.56V20.04H11.64C13.2667 20.04 14.4867 19.6867 15.3 18.98C16.1267 18.2733 16.54 17.1667 16.54 15.66ZM17.62 28.16C17.62 26.32 17.1067 25.0267 16.08 24.28C15.0667 23.5333 13.6867 23.16 11.94 23.16H7.56V32.82H11.76C13.4133 32.82 14.8 32.4867 15.92 31.82C17.0533 31.14 17.62 29.92 17.62 28.16ZM43.3541 31.16C43.3541 31.9733 43.4808 32.58 43.7341 32.98C44.0008 33.3667 44.4275 33.6533 45.0141 33.84L44.1141 36.48C42.0208 36.2133 40.6608 35.2333 40.0341 33.54C39.2875 34.5 38.3341 35.2333 37.1741 35.74C36.0275 36.2467 34.7608 36.5 33.3741 36.5C31.9741 36.5 30.7541 36.2333 29.7141 35.7C28.6875 35.1533 27.8941 34.3867 27.3341 33.4C26.7875 32.4133 26.5141 31.2667 26.5141 29.96C26.5141 27.7733 27.3675 26.0933 29.0741 24.92C30.7941 23.7333 33.2608 23.14 36.4741 23.14H39.5341V21.54C39.5341 20.14 39.1141 19.12 38.2741 18.48C37.4475 17.84 36.2408 17.52 34.6541 17.52C33.9075 17.52 33.0541 17.6133 32.0941 17.8C31.1341 17.9733 30.1408 18.24 29.1141 18.6L28.1341 15.8C30.5741 14.88 32.9408 14.42 35.2341 14.42C37.9008 14.42 39.9208 15.0267 41.2941 16.24C42.6675 17.4533 43.3541 19.1533 43.3541 21.34V31.16ZM34.4541 33.62C35.4408 33.62 36.3875 33.3667 37.2941 32.86C38.2008 32.3533 38.9475 31.6467 39.5341 30.74V25.64H36.7341C34.5875 25.64 33.0275 26.0067 32.0541 26.74C31.0808 27.46 30.5941 28.5 30.5941 29.86C30.5941 31.1 30.9141 32.04 31.5541 32.68C32.2075 33.3067 33.1741 33.62 34.4541 33.62ZM59.1883 33.44C60.7216 33.44 61.9283 33.16 62.8083 32.6C63.7016 32.04 64.1483 31.28 64.1483 30.32C64.1483 29.6667 64.0216 29.1267 63.7683 28.7C63.5283 28.2733 63.0483 27.8867 62.3283 27.54C61.6083 27.18 60.5216 26.8133 59.0683 26.44C57.4949 26.04 56.2016 25.6 55.1883 25.12C54.1749 24.64 53.3883 24.0133 52.8283 23.24C52.2683 22.4667 51.9883 21.4867 51.9883 20.3C51.9883 19.1133 52.3216 18.08 52.9883 17.2C53.6683 16.3067 54.6216 15.62 55.8483 15.14C57.0883 14.66 58.5283 14.42 60.1683 14.42C63.2349 14.42 65.8349 15.2133 67.9683 16.8L66.3283 19.3C65.4349 18.7 64.5016 18.24 63.5283 17.92C62.5549 17.6 61.4616 17.44 60.2483 17.44C58.7549 17.44 57.6616 17.6667 56.9683 18.12C56.2749 18.5733 55.9283 19.2067 55.9283 20.02C55.9283 20.6067 56.0883 21.0867 56.4083 21.46C56.7416 21.8333 57.2883 22.1733 58.0483 22.48C58.8083 22.7867 59.9349 23.1467 61.4283 23.56C62.9483 23.9733 64.1949 24.4333 65.1683 24.94C66.1416 25.4467 66.9016 26.1133 67.4483 26.94C67.9949 27.7667 68.2683 28.82 68.2683 30.1C68.2683 31.54 67.8483 32.74 67.0083 33.7C66.1683 34.66 65.0616 35.3667 63.6883 35.82C62.3149 36.2733 60.8149 36.5 59.1883 36.5C57.3883 36.5 55.7883 36.24 54.3883 35.72C52.9883 35.1867 51.7816 34.48 50.7683 33.6L52.8883 31.16C53.7416 31.8667 54.7016 32.4267 55.7683 32.84C56.8483 33.24 57.9883 33.44 59.1883 33.44ZM83.9824 4.84C84.7691 4.84 85.4091 5.08667 85.9024 5.58C86.3958 6.06 86.6424 6.66 86.6424 7.38C86.6424 8.12667 86.3958 8.74667 85.9024 9.24C85.4091 9.73333 84.7691 9.98 83.9824 9.98C83.2091 9.98 82.5758 9.73333 82.0824 9.24C81.5891 8.74667 81.3424 8.12667 81.3424 7.38C81.3424 6.66 81.5891 6.06 82.0824 5.58C82.5758 5.08667 83.2091 4.84 83.9824 4.84ZM86.8424 33.08H92.7024V36H76.5824V33.08H83.0024V17.84H76.7824V14.92H86.8424V33.08ZM109.597 33.26C111.423 33.26 113.21 32.6467 114.957 31.42L116.797 33.92C115.863 34.7067 114.743 35.3333 113.437 35.8C112.13 36.2667 110.83 36.5 109.537 36.5C107.443 36.5 105.643 36.0533 104.137 35.16C102.63 34.2533 101.477 32.98 100.677 31.34C99.8899 29.6867 99.4966 27.76 99.4966 25.56C99.4966 23.4267 99.8966 21.52 100.697 19.84C101.497 18.1467 102.657 16.82 104.177 15.86C105.71 14.9 107.517 14.42 109.597 14.42C112.33 14.42 114.717 15.2467 116.757 16.9L114.937 19.4C113.163 18.1733 111.39 17.56 109.617 17.56C108.417 17.56 107.363 17.8533 106.457 18.44C105.563 19.0267 104.863 19.92 104.357 21.12C103.863 22.3067 103.617 23.7867 103.617 25.56C103.617 28.1733 104.157 30.1133 105.237 31.38C106.317 32.6333 107.77 33.26 109.597 33.26ZM126.171 12.1L126.271 13.42C126.564 17.3 126.711 20.4067 126.711 22.74V36H123.111V8.44H128.371L137.771 32.4L137.711 31.58C137.391 27.78 137.231 24.4867 137.231 21.7V8.44H140.831V36H135.471L126.171 12.1ZM156.005 14.42C157.992 14.42 159.672 14.8733 161.045 15.78C162.432 16.6733 163.472 17.9467 164.165 19.6C164.872 21.24 165.225 23.1867 165.225 25.44C165.225 27.64 164.865 29.5733 164.145 31.24C163.438 32.8933 162.385 34.1867 160.985 35.12C159.598 36.04 157.925 36.5 155.965 36.5C153.978 36.5 152.292 36.0533 150.905 35.16C149.518 34.2533 148.472 32.9733 147.765 31.32C147.058 29.6667 146.705 27.72 146.705 25.48C146.705 23.28 147.065 21.3533 147.785 19.7C148.505 18.0333 149.558 16.74 150.945 15.82C152.345 14.8867 154.032 14.42 156.005 14.42ZM156.005 17.48C154.258 17.48 152.945 18.1333 152.065 19.44C151.198 20.7467 150.765 22.76 150.765 25.48C150.765 28.1733 151.192 30.1733 152.045 31.48C152.912 32.7867 154.218 33.44 155.965 33.44C157.712 33.44 159.012 32.7867 159.865 31.48C160.732 30.16 161.165 28.1467 161.165 25.44C161.165 22.7467 160.732 20.7467 159.865 19.44C159.012 18.1333 157.725 17.48 156.005 17.48ZM188.899 34.92C188.152 35.4 187.252 35.78 186.199 36.06C185.146 36.3533 184.092 36.5 183.039 36.5C181.506 36.5 180.192 36.2267 179.099 35.68C178.006 35.12 177.179 34.3467 176.619 33.36C176.059 32.36 175.779 31.2 175.779 29.88V17.8H170.999V14.92H175.779V10.16L179.619 9.7V14.92H186.819L186.379 17.8H179.619V29.84C179.619 31.0267 179.919 31.9067 180.519 32.48C181.132 33.0533 182.119 33.34 183.479 33.34C184.892 33.34 186.219 33.0067 187.459 32.34L188.899 34.92ZM198.873 26.76C198.94 28.2533 199.24 29.5 199.773 30.5C200.32 31.4867 201.033 32.22 201.913 32.7C202.793 33.1667 203.78 33.4 204.873 33.4C205.9 33.4 206.846 33.2467 207.713 32.94C208.593 32.6333 209.506 32.16 210.453 31.52L212.193 33.94C211.193 34.74 210.046 35.3667 208.753 35.82C207.46 36.2733 206.126 36.5 204.753 36.5C202.673 36.5 200.893 36.0467 199.413 35.14C197.933 34.22 196.806 32.9333 196.033 31.28C195.26 29.6133 194.873 27.68 194.873 25.48C194.873 23.36 195.253 21.4667 196.013 19.8C196.786 18.12 197.88 16.8067 199.293 15.86C200.72 14.9 202.38 14.42 204.273 14.42C206.073 14.42 207.633 14.84 208.953 15.68C210.273 16.52 211.286 17.7267 211.993 19.3C212.7 20.86 213.053 22.7067 213.053 24.84C213.053 25.4533 213.026 26.0933 212.973 26.76H198.873ZM204.313 17.42C202.753 17.42 201.486 17.9733 200.513 19.08C199.553 20.1733 199.006 21.8 198.873 23.96H209.353C209.313 21.84 208.853 20.22 207.973 19.1C207.093 17.98 205.873 17.42 204.313 17.42ZM227.147 33.44C228.681 33.44 229.887 33.16 230.767 32.6C231.661 32.04 232.107 31.28 232.107 30.32C232.107 29.6667 231.981 29.1267 231.727 28.7C231.487 28.2733 231.007 27.8867 230.287 27.54C229.567 27.18 228.481 26.8133 227.027 26.44C225.454 26.04 224.161 25.6 223.147 25.12C222.134 24.64 221.347 24.0133 220.787 23.24C220.227 22.4667 219.947 21.4867 219.947 20.3C219.947 19.1133 220.281 18.08 220.947 17.2C221.627 16.3067 222.581 15.62 223.807 15.14C225.047 14.66 226.487 14.42 228.127 14.42C231.194 14.42 233.794 15.2133 235.927 16.8L234.287 19.3C233.394 18.7 232.461 18.24 231.487 17.92C230.514 17.6 229.421 17.44 228.207 17.44C226.714 17.44 225.621 17.6667 224.927 18.12C224.234 18.5733 223.887 19.2067 223.887 20.02C223.887 20.6067 224.047 21.0867 224.367 21.46C224.701 21.8333 225.247 22.1733 226.007 22.48C226.767 22.7867 227.894 23.1467 229.387 23.56C230.907 23.9733 232.154 24.4333 233.127 24.94C234.101 25.4467 234.861 26.1133 235.407 26.94C235.954 27.7667 236.227 28.82 236.227 30.1C236.227 31.54 235.807 32.74 234.967 33.7C234.127 34.66 233.021 35.3667 231.647 35.82C230.274 36.2733 228.774 36.5 227.147 36.5C225.347 36.5 223.747 36.24 222.347 35.72C220.947 35.1867 219.741 34.48 218.727 33.6L220.847 31.16C221.701 31.8667 222.661 32.4267 223.727 32.84C224.807 33.24 225.947 33.44 227.147 33.44Z" fill="white"/>
<g clip-path="url(#clip0)">
<path d="M234.133 42.2177L228.194 37.0457L226.893 40.7914L229.832 43.3513L234.133 42.2177Z" fill="#E6E6E6"/>
<path d="M229.832 43.3513L226.893 40.7914L225.618 44.4621L229.832 43.3513Z" fill="#B3B3B3"/>
<path d="M250.434 28.0191L244.496 22.8473L228.195 37.0453L234.133 42.2172L250.434 28.0191Z" fill="#FFBA57"/>
<path d="M250.434 28.0185L252.507 26.2132L246.569 21.0414L244.496 22.8467L250.434 28.0185Z" fill="#E6E6E6"/>
<path d="M254.748 24.2623C255.594 23.5257 255.594 22.3315 254.748 21.595L251.872 19.0903C251.027 18.3537 249.656 18.3537 248.81 19.0903L246.569 21.042L252.507 26.2139L254.748 24.2623Z" fill="#E8655A"/>
<path d="M227.758 36.6655C227.758 36.6655 227.757 36.666 227.757 36.6672C227.687 36.7286 227.633 36.8044 227.603 36.8901L225.026 44.3064C224.96 44.4962 225.02 44.7023 225.181 44.8425C225.298 44.9448 225.456 44.9999 225.617 44.9999C225.677 44.9999 225.737 44.9924 225.796 44.9769L234.311 42.7324C234.41 42.7064 234.497 42.6593 234.568 42.5979C234.568 42.5979 234.569 42.598 234.569 42.598L255.185 24.6425C255.71 24.1847 256 23.576 256 22.9285C256 22.2811 255.71 21.6724 255.185 21.2145L252.309 18.7099C251.783 18.2522 251.084 18 250.341 18C249.598 18 248.899 18.2521 248.373 18.71L227.758 36.6655ZM246.569 21.8026L251.634 26.2139L250.434 27.2586L245.37 22.8473L246.569 21.8026ZM234.132 41.457L229.068 37.0457L244.496 23.6079L249.561 28.0192L234.132 41.457ZM228.487 38.061L232.967 41.963L230.007 42.7431L227.591 40.6388L228.487 38.061ZM227.185 41.8067L228.666 43.0966L226.542 43.6563L227.185 41.8067ZM254.311 23.8819L252.507 25.4533L247.442 21.042L249.246 19.4706C249.539 19.2159 249.928 19.0757 250.341 19.0757C250.754 19.0757 251.143 19.2159 251.436 19.4706L254.311 21.9753C254.604 22.2299 254.765 22.5685 254.765 22.9286C254.765 23.2887 254.604 23.6273 254.311 23.8819Z" fill="#603813"/>
<path d="M243.592 31.55C243.351 31.3399 242.96 31.3399 242.719 31.55L242.472 31.7651C242.23 31.9752 242.23 32.3157 242.472 32.5258C242.592 32.6309 242.75 32.6833 242.908 32.6833C243.066 32.6833 243.224 32.6309 243.345 32.5258L243.592 32.3107C243.833 32.1006 243.833 31.76 243.592 31.55Z" fill="#603813"/>
<path d="M240.681 33.3249L233.703 39.4025C233.462 39.6126 233.462 39.9531 233.703 40.1632C233.823 40.2683 233.981 40.3207 234.139 40.3207C234.297 40.3207 234.456 40.2683 234.576 40.1632L241.554 34.0855C241.795 33.8755 241.795 33.535 241.554 33.3249C241.313 33.1148 240.922 33.1148 240.681 33.3249Z" fill="#603813"/>
</g>
<defs>
<clipPath id="clip0">
<rect x="225" y="18" width="31" height="27" fill="white"/>
</clipPath>
</defs>
</svg>
